<svg width="591" height="143" viewBox="0 0 591 143" fill="none" xmlns="http://www.w3.org/2000/svg">
<path d="M96.6211 32.3555C93.1445 33.0977 89.8828 34.0352 86.8359 35.168C83.7891 36.3008 80.918 37.5508 78.2227 38.918C75.5664 40.2461 73.1055 41.6523 70.8398 43.1367C68.6133 44.582 66.582 46.0078 64.7461 47.4141C60.4492 50.7344 56.7188 54.2695 53.5547 58.0195C53.4766 59.7383 53.418 61.4766 53.3789 63.2344C53.3398 64.9531 53.3398 66.8672 53.3789 68.9766C53.418 73.0391 53.4961 77.0625 53.6133 81.0469C53.7695 84.9922 54.0039 88.7617 54.3164 92.3555C54.6289 95.9492 55.0391 99.2695 55.5469 102.316C56.0938 105.324 56.7969 107.941 57.6562 110.168C58.5547 112.395 59.6289 114.133 60.8789 115.383C62.1289 116.633 63.6133 117.258 65.332 117.258C66.2695 117.258 67.0898 117.141 67.793 116.906C68.4961 116.711 69.1602 116.418 69.7852 116.027C70.4492 115.637 71.1133 115.168 71.7773 114.621C72.4414 114.074 73.1836 113.469 74.0039 112.805L75.5273 114.68C74.5898 115.539 73.6523 116.34 72.7148 117.082C71.7773 117.863 70.8008 118.527 69.7852 119.074C68.7695 119.66 67.6562 120.109 66.4453 120.422C65.2734 120.773 63.9453 120.949 62.4609 120.949C60.5859 120.949 58.8477 120.598 57.2461 119.895C55.6836 119.191 54.2578 118 52.9688 116.32C51.7188 114.641 50.625 112.395 49.6875 109.582C48.7891 106.77 48.0469 103.254 47.4609 99.0352C46.9141 94.7773 46.543 89.7383 46.3477 83.918C46.1523 78.0977 46.1523 71.3594 46.3477 63.7031C46.3477 63.1562 46.582 62.4336 47.0508 61.5352C47.5195 60.5977 48.2617 59.4844 49.2773 58.1953C51.7773 55.1094 54.8633 51.9062 58.5352 48.5859C62.2461 45.2656 66.2109 42.0625 70.4297 38.9766C74.6484 35.8906 78.9258 33.0391 83.2617 30.4219C87.6367 27.8047 91.7383 25.6563 95.5664 23.9766L96.6211 32.3555ZM18.6914 108L43.4766 50.0508C44.3359 47.9805 45.2148 45.9102 46.1133 43.8398C47.0117 41.7305 47.8125 39.7383 48.5156 37.8633C49.2188 35.9492 49.7852 34.1914 50.2148 32.5898C50.6836 30.9883 50.918 29.6406 50.918 28.5469C50.918 27.8438 50.7617 27.2773 50.4492 26.8477C50.1758 26.3789 49.7461 26.1445 49.1602 26.1445C46.3867 26.5742 43.2031 27.9023 39.6094 30.1289C38.0859 31.0664 36.3867 32.2578 34.5117 33.7031C32.6758 35.1484 30.6641 36.9258 28.4766 39.0352C26.3281 41.1055 24.0234 43.5469 21.5625 46.3594C19.1406 49.1328 16.582 52.3555 13.8867 56.0273L12.6562 48.1172C16.4453 44.2109 20.1758 40.7734 23.8477 37.8047C27.5586 34.7969 31.0547 32.2773 34.3359 30.2461C37.6562 28.1758 40.6641 26.6133 43.3594 25.5586C46.0938 24.5039 48.3789 23.9766 50.2148 23.9766C52.4023 23.9766 53.9648 24.6406 54.9023 25.9688C55.8398 27.2578 56.3086 28.918 56.3086 30.9492C56.3086 32.2773 56.1523 33.7227 55.8398 35.2852C55.5273 36.8086 55.1172 38.4102 54.6094 40.0898C54.1406 41.7305 53.5742 43.4102 52.9102 45.1289C52.2852 46.8086 51.6211 48.4492 50.918 50.0508L25.957 108H18.6914Z" fill="#0F0C31"/>
<path d="M106.621 36.3555C103.145 37.0977 99.8828 38.0352 96.8359 39.168C93.7891 40.3008 90.918 41.5508 88.2227 42.918C85.5664 44.2461 83.1055 45.6523 80.8398 47.1367C78.6133 48.582 76.582 50.0078 74.7461 51.4141C70.4492 54.7344 66.7188 58.2695 63.5547 62.0195C63.4766 63.7383 63.418 65.4766 63.3789 67.2344C63.3398 68.9531 63.3398 70.8672 63.3789 72.9766C63.418 77.0391 63.4961 81.0625 63.6133 85.0469C63.7695 88.9922 64.0039 92.7617 64.3164 96.3555C64.6289 99.9492 65.0391 103.27 65.5469 106.316C66.0938 109.324 66.7969 111.941 67.6562 114.168C68.5547 116.395 69.6289 118.133 70.8789 119.383C72.1289 120.633 73.6133 121.258 75.332 121.258C76.2695 121.258 77.0898 121.141 77.793 120.906C78.4961 120.711 79.1602 120.418 79.7852 120.027C80.4492 119.637 81.1133 119.168 81.7773 118.621C82.4414 118.074 83.1836 117.469 84.0039 116.805L85.5273 118.68C84.5898 119.539 83.6523 120.34 82.7148 121.082C81.7773 121.863 80.8008 122.527 79.7852 123.074C78.7695 123.66 77.6562 124.109 76.4453 124.422C75.2734 124.773 73.9453 124.949 72.4609 124.949C70.5859 124.949 68.8477 124.598 67.2461 123.895C65.6836 123.191 64.2578 122 62.9688 120.32C61.7188 118.641 60.625 116.395 59.6875 113.582C58.7891 110.77 58.0469 107.254 57.4609 103.035C56.9141 98.7773 56.543 93.7383 56.3477 87.918C56.1523 82.0977 56.1523 75.3594 56.3477 67.7031C56.3477 67.1562 56.582 66.4336 57.0508 65.5352C57.5195 64.5977 58.2617 63.4844 59.2773 62.1953C61.7773 59.1094 64.8633 55.9062 68.5352 52.5859C72.2461 49.2656 76.2109 46.0625 80.4297 42.9766C84.6484 39.8906 88.9258 37.0391 93.2617 34.4219C97.6367 31.8047 101.738 29.6563 105.566 27.9766L106.621 36.3555ZM28.6914 112L53.4766 54.0508C54.3359 51.9805 55.2148 49.9102 56.1133 47.8398C57.0117 45.7305 57.8125 43.7383 58.5156 41.8633C59.2188 39.9492 59.7852 38.1914 60.2148 36.5898C60.6836 34.9883 60.918 33.6406 60.918 32.5469C60.918 31.8438 60.7617 31.2773 60.4492 30.8477C60.1758 30.3789 59.7461 30.1445 59.1602 30.1445C56.3867 30.5742 53.2031 31.9023 49.6094 34.1289C48.0859 35.0664 46.3867 36.2578 44.5117 37.7031C42.6758 39.1484 40.6641 40.9258 38.4766 43.0352C36.3281 45.1055 34.0234 47.5469 31.5625 50.3594C29.1406 53.1328 26.582 56.3555 23.8867 60.0273L22.6562 52.1172C26.4453 48.2109 30.1758 44.7734 33.8477 41.8047C37.5586 38.7969 41.0547 36.2773 44.3359 34.2461C47.6562 32.1758 50.6641 30.6133 53.3594 29.5586C56.0938 28.5039 58.3789 27.9766 60.2148 27.9766C62.4023 27.9766 63.9648 28.6406 64.9023 29.9688C65.8398 31.2578 66.3086 32.918 66.3086 34.9492C66.3086 36.2773 66.1523 37.7227 65.8398 39.2852C65.5273 40.8086 65.1172 42.4102 64.6094 44.0898C64.1406 45.7305 63.5742 47.4102 62.9102 49.1289C62.2852 50.8086 61.6211 52.4492 60.918 54.0508L35.957 112H28.6914Z" fill="#222036"/>
<path d="M150.508 79.7109H156.426L153.906 85.1016H148.281L137.383 111H129.59L140.43 85.1016H114.941C114.785 85.4141 114.629 85.707 114.473 85.9805C114.355 86.2148 114.219 86.4688 114.062 86.7422C111.055 92.1719 108.105 96.5469 105.215 99.8672C102.324 103.148 99.5508 105.707 96.8945 107.543C94.2383 109.34 91.7383 110.531 89.3945 111.117C87.0508 111.742 84.9023 112.055 82.9492 112.055C81.2695 112.055 79.7266 111.781 78.3203 111.234C76.875 110.727 75.625 110.004 74.5703 109.066C73.5156 108.09 72.6953 106.898 72.1094 105.492C71.4844 104.086 71.1719 102.504 71.1719 100.746C71.1719 97.4258 72.0508 94.457 73.8086 91.8398C75.5273 89.2227 77.9297 87.0156 81.0156 85.2188C84.1016 83.4219 87.7734 82.0547 92.0312 81.1172C96.3281 80.1797 101.016 79.7109 106.094 79.7109H109.902C114.121 72.5234 117.969 66.2344 121.445 60.8438C124.922 55.4531 128.125 50.8047 131.055 46.8984C133.984 42.9922 136.66 39.75 139.082 37.1719C141.543 34.5938 143.848 32.5625 145.996 31.0781C148.145 29.5547 150.176 28.5 152.09 27.9141C154.043 27.2891 155.957 26.9766 157.832 26.9766C160.293 26.9766 162.246 27.7188 163.691 29.2031C165.137 30.6484 165.859 32.9727 165.859 36.1758C165.859 38.4414 165.469 41.1172 164.688 44.2031C163.906 47.2891 162.656 50.8828 160.938 54.9844L150.508 79.7109ZM157.188 29.1445C155.898 29.1445 154.648 29.3203 153.438 29.6719C152.227 29.9844 150.898 30.707 149.453 31.8398C148.008 32.9727 146.367 34.6523 144.531 36.8789C142.734 39.0664 140.586 42.0352 138.086 45.7852C135.625 49.5352 132.754 54.1836 129.473 59.7305C126.191 65.2383 122.363 71.8984 117.988 79.7109H142.656L153.027 54.9844C155.293 49.5156 157.09 44.9844 158.418 41.3906C159.785 37.7578 160.469 34.9062 160.469 32.8359C160.469 31.5859 160.215 30.668 159.707 30.082C159.199 29.457 158.359 29.1445 157.188 29.1445ZM83.418 109.125C85.9961 109.125 88.3008 108.5 90.332 107.25C92.4023 105.961 94.2969 104.281 96.0156 102.211C97.7734 100.141 99.4141 97.7969 100.938 95.1797C102.5 92.5625 104.043 89.9062 105.566 87.2109L106.797 85.1016H103.34C97.7539 85.1016 93.0859 85.5508 89.3359 86.4492C85.5859 87.3086 82.5781 88.4609 80.3125 89.9062C78.0469 91.3516 76.4453 93.0117 75.5078 94.8867C74.5312 96.7227 74.043 98.5977 74.043 100.512C74.043 101.605 74.2188 102.68 74.5703 103.734C74.8828 104.75 75.4102 105.668 76.1523 106.488C76.8945 107.27 77.8711 107.914 79.082 108.422C80.2539 108.891 81.6992 109.125 83.418 109.125Z" fill="url(#paint0_linear_11_17)"/>
<path d="M156.508 86.7109H162.426L159.906 92.1016H154.281L143.383 118H135.59L146.43 92.1016H120.941C120.785 92.4141 120.629 92.707 120.473 92.9805C120.355 93.2148 120.219 93.4688 120.062 93.7422C117.055 99.1719 114.105 103.547 111.215 106.867C108.324 110.148 105.551 112.707 102.895 114.543C100.238 116.34 97.7383 117.531 95.3945 118.117C93.0508 118.742 90.9023 119.055 88.9492 119.055C87.2695 119.055 85.7266 118.781 84.3203 118.234C82.875 117.727 81.625 117.004 80.5703 116.066C79.5156 115.09 78.6953 113.898 78.1094 112.492C77.4844 111.086 77.1719 109.504 77.1719 107.746C77.1719 104.426 78.0508 101.457 79.8086 98.8398C81.5273 96.2227 83.9297 94.0156 87.0156 92.2188C90.1016 90.4219 93.7734 89.0547 98.0312 88.1172C102.328 87.1797 107.016 86.7109 112.094 86.7109H115.902C120.121 79.5234 123.969 73.2344 127.445 67.8438C130.922 62.4531 134.125 57.8047 137.055 53.8984C139.984 49.9922 142.66 46.75 145.082 44.1719C147.543 41.5938 149.848 39.5625 151.996 38.0781C154.145 36.5547 156.176 35.5 158.09 34.9141C160.043 34.2891 161.957 33.9766 163.832 33.9766C166.293 33.9766 168.246 34.7188 169.691 36.2031C171.137 37.6484 171.859 39.9727 171.859 43.1758C171.859 45.4414 171.469 48.1172 170.688 51.2031C169.906 54.2891 168.656 57.8828 166.938 61.9844L156.508 86.7109ZM163.188 36.1445C161.898 36.1445 160.648 36.3203 159.438 36.6719C158.227 36.9844 156.898 37.707 155.453 38.8398C154.008 39.9727 152.367 41.6523 150.531 43.8789C148.734 46.0664 146.586 49.0352 144.086 52.7852C141.625 56.5352 138.754 61.1836 135.473 66.7305C132.191 72.2383 128.363 78.8984 123.988 86.7109H148.656L159.027 61.9844C161.293 56.5156 163.09 51.9844 164.418 48.3906C165.785 44.7578 166.469 41.9062 166.469 39.8359C166.469 38.5859 166.215 37.668 165.707 37.082C165.199 36.457 164.359 36.1445 163.188 36.1445ZM89.418 116.125C91.9961 116.125 94.3008 115.5 96.332 114.25C98.4023 112.961 100.297 111.281 102.016 109.211C103.773 107.141 105.414 104.797 106.938 102.18C108.5 99.5625 110.043 96.9062 111.566 94.2109L112.797 92.1016H109.34C103.754 92.1016 99.0859 92.5508 95.3359 93.4492C91.5859 94.3086 88.5781 95.4609 86.3125 96.9062C84.0469 98.3516 82.4453 100.012 81.5078 101.887C80.5312 103.723 80.043 105.598 80.043 107.512C80.043 108.605 80.2188 109.68 80.5703 110.734C80.8828 111.75 81.4102 112.668 82.1523 113.488C82.8945 114.27 83.8711 114.914 85.082 115.422C86.2539 115.891 87.6992 116.125 89.418 116.125Z" fill="url(#paint1_linear_11_17)"/>
<path d="M230.75 101.703C229.617 105.18 228.25 107.934 226.648 109.965C225.047 111.996 223.387 113.539 221.668 114.594C219.988 115.648 218.328 116.312 216.688 116.586C215.047 116.898 213.582 117.055 212.293 117.055C210.34 117.055 208.523 116.801 206.844 116.293C205.203 115.785 203.641 115.121 202.156 114.301C200.672 113.48 199.285 112.562 197.996 111.547C196.707 110.492 195.477 109.438 194.305 108.383C192.156 110.961 189.812 113.031 187.273 114.594C184.734 116.117 181.941 116.879 178.895 116.879C177.84 116.879 176.785 116.703 175.73 116.352C174.637 116.039 173.66 115.551 172.801 114.887C171.902 114.184 171.18 113.305 170.633 112.25C170.086 111.156 169.812 109.867 169.812 108.383C169.812 106.859 170.145 105.395 170.809 103.988C171.434 102.582 172.332 101.352 173.504 100.297C174.637 99.2031 176.004 98.3438 177.605 97.7188C179.168 97.0938 180.887 96.7812 182.762 96.7812C184.637 96.7812 186.395 97.1914 188.035 98.0117C189.715 98.793 191.375 99.7695 193.016 100.941C194.188 98.6758 195.301 96.2344 196.355 93.6172C197.41 90.9609 198.406 88.2266 199.344 85.4141C200.32 82.5625 201.238 79.6914 202.098 76.8008C202.957 73.9102 203.797 71.0586 204.617 68.2461C206.102 63.0117 207.645 58.4805 209.246 54.6523C210.848 50.8242 212.469 47.582 214.109 44.9258C215.789 42.2305 217.469 40.043 219.148 38.3633C220.828 36.6445 222.488 35.3164 224.129 34.3789C225.77 33.4414 227.391 32.8164 228.992 32.5039C230.594 32.1523 232.156 31.9766 233.68 31.9766C235.633 31.9766 237.371 32.25 238.895 32.7969C240.418 33.3438 241.707 34.1055 242.762 35.082C243.816 36.0195 244.617 37.1328 245.164 38.4219C245.711 39.6719 245.984 41.0195 245.984 42.4648C245.984 43.9102 245.711 45.2969 245.164 46.625C244.617 47.9141 243.875 49.125 242.938 50.2578C242 51.3516 240.887 52.3281 239.598 53.1875C238.348 54.0469 237.02 54.75 235.613 55.2969L233.855 48.4414C234.871 48.4023 235.887 48.2461 236.902 47.9727C237.957 47.6602 238.895 47.2109 239.715 46.625C240.535 46.0391 241.199 45.3164 241.707 44.457C242.254 43.5977 242.527 42.5625 242.527 41.3516C242.527 40.4922 242.352 39.6328 242 38.7734C241.688 37.875 241.16 37.0938 240.418 36.4297C239.715 35.7656 238.777 35.2188 237.605 34.7891C236.434 34.3594 235.008 34.1445 233.328 34.1445C231.414 34.1445 229.637 34.6719 227.996 35.7266C226.395 36.7812 224.91 38.207 223.543 40.0039C222.176 41.8008 220.926 43.9102 219.793 46.332C218.66 48.7148 217.605 51.2344 216.629 53.8906C215.652 56.5469 214.734 59.2812 213.875 62.0938C213.016 64.8672 212.215 67.5625 211.473 70.1797C210.652 72.9141 209.754 75.7852 208.777 78.793C207.801 81.7617 206.727 84.7305 205.555 87.6992C204.422 90.668 203.172 93.5781 201.805 96.4297C200.438 99.2422 198.953 101.859 197.352 104.281C198.484 105.141 199.637 105.98 200.809 106.801C202.02 107.621 203.27 108.344 204.559 108.969C205.887 109.594 207.273 110.102 208.719 110.492C210.203 110.883 211.766 111.078 213.406 111.078C215.125 111.078 216.746 110.961 218.27 110.727C219.793 110.492 221.18 110.023 222.43 109.32C223.719 108.578 224.852 107.543 225.828 106.215C226.805 104.887 227.586 103.129 228.172 100.941L230.75 101.703ZM178.426 113.949C180.809 113.949 183.016 113.148 185.047 111.547C187.078 109.945 188.973 107.777 190.73 105.043C189.207 103.637 187.703 102.465 186.219 101.527C184.773 100.551 183.289 100.062 181.766 100.062C180.281 100.062 178.992 100.316 177.898 100.824C176.766 101.332 175.809 101.996 175.027 102.816C174.246 103.598 173.66 104.477 173.27 105.453C172.879 106.391 172.684 107.309 172.684 108.207C172.684 109.965 173.191 111.371 174.207 112.426C175.223 113.441 176.629 113.949 178.426 113.949Z" fill="#110909"/>
<path d="M236.75 110.703C235.617 114.18 234.25 116.934 232.648 118.965C231.047 120.996 229.387 122.539 227.668 123.594C225.988 124.648 224.328 125.312 222.688 125.586C221.047 125.898 219.582 126.055 218.293 126.055C216.34 126.055 214.523 125.801 212.844 125.293C211.203 124.785 209.641 124.121 208.156 123.301C206.672 122.48 205.285 121.562 203.996 120.547C202.707 119.492 201.477 118.438 200.305 117.383C198.156 119.961 195.812 122.031 193.273 123.594C190.734 125.117 187.941 125.879 184.895 125.879C183.84 125.879 182.785 125.703 181.73 125.352C180.637 125.039 179.66 124.551 178.801 123.887C177.902 123.184 177.18 122.305 176.633 121.25C176.086 120.156 175.812 118.867 175.812 117.383C175.812 115.859 176.145 114.395 176.809 112.988C177.434 111.582 178.332 110.352 179.504 109.297C180.637 108.203 182.004 107.344 183.605 106.719C185.168 106.094 186.887 105.781 188.762 105.781C190.637 105.781 192.395 106.191 194.035 107.012C195.715 107.793 197.375 108.77 199.016 109.941C200.188 107.676 201.301 105.234 202.355 102.617C203.41 99.9609 204.406 97.2266 205.344 94.4141C206.32 91.5625 207.238 88.6914 208.098 85.8008C208.957 82.9102 209.797 80.0586 210.617 77.2461C212.102 72.0117 213.645 67.4805 215.246 63.6523C216.848 59.8242 218.469 56.582 220.109 53.9258C221.789 51.2305 223.469 49.043 225.148 47.3633C226.828 45.6445 228.488 44.3164 230.129 43.3789C231.77 42.4414 233.391 41.8164 234.992 41.5039C236.594 41.1523 238.156 40.9766 239.68 40.9766C241.633 40.9766 243.371 41.25 244.895 41.7969C246.418 42.3438 247.707 43.1055 248.762 44.082C249.816 45.0195 250.617 46.1328 251.164 47.4219C251.711 48.6719 251.984 50.0195 251.984 51.4648C251.984 52.9102 251.711 54.2969 251.164 55.625C250.617 56.9141 249.875 58.125 248.938 59.2578C248 60.3516 246.887 61.3281 245.598 62.1875C244.348 63.0469 243.02 63.75 241.613 64.2969L239.855 57.4414C240.871 57.4023 241.887 57.2461 242.902 56.9727C243.957 56.6602 244.895 56.2109 245.715 55.625C246.535 55.0391 247.199 54.3164 247.707 53.457C248.254 52.5977 248.527 51.5625 248.527 50.3516C248.527 49.4922 248.352 48.6328 248 47.7734C247.688 46.875 247.16 46.0938 246.418 45.4297C245.715 44.7656 244.777 44.2188 243.605 43.7891C242.434 43.3594 241.008 43.1445 239.328 43.1445C237.414 43.1445 235.637 43.6719 233.996 44.7266C232.395 45.7812 230.91 47.207 229.543 49.0039C228.176 50.8008 226.926 52.9102 225.793 55.332C224.66 57.7148 223.605 60.2344 222.629 62.8906C221.652 65.5469 220.734 68.2812 219.875 71.0938C219.016 73.8672 218.215 76.5625 217.473 79.1797C216.652 81.9141 215.754 84.7852 214.777 87.793C213.801 90.7617 212.727 93.7305 211.555 96.6992C210.422 99.668 209.172 102.578 207.805 105.43C206.438 108.242 204.953 110.859 203.352 113.281C204.484 114.141 205.637 114.98 206.809 115.801C208.02 116.621 209.27 117.344 210.559 117.969C211.887 118.594 213.273 119.102 214.719 119.492C216.203 119.883 217.766 120.078 219.406 120.078C221.125 120.078 222.746 119.961 224.27 119.727C225.793 119.492 227.18 119.023 228.43 118.32C229.719 117.578 230.852 116.543 231.828 115.215C232.805 113.887 233.586 112.129 234.172 109.941L236.75 110.703ZM184.426 122.949C186.809 122.949 189.016 122.148 191.047 120.547C193.078 118.945 194.973 116.777 196.73 114.043C195.207 112.637 193.703 111.465 192.219 110.527C190.773 109.551 189.289 109.062 187.766 109.062C186.281 109.062 184.992 109.316 183.898 109.824C182.766 110.332 181.809 110.996 181.027 111.816C180.246 112.598 179.66 113.477 179.27 114.453C178.879 115.391 178.684 116.309 178.684 117.207C178.684 118.965 179.191 120.371 180.207 121.426C181.223 122.441 182.629 122.949 184.426 122.949Z" fill="#110909"/>
<path d="M311.875 53.0508C312.734 50.9805 313.613 48.9102 314.512 46.8398C315.41 44.7305 316.211 42.7383 316.914 40.8633C317.617 38.9492 318.184 37.1914 318.613 35.5898C319.082 33.9883 319.316 32.6406 319.316 31.5469C319.316 30.8438 319.16 30.2773 318.848 29.8477C318.574 29.3789 318.145 29.1445 317.559 29.1445C314.785 29.5742 311.602 30.9023 308.008 33.1289C306.484 34.0664 304.785 35.2578 302.91 36.7031C301.074 38.1484 299.062 39.9258 296.875 42.0352C294.727 44.1055 292.422 46.5469 289.961 49.3594C287.539 52.1328 284.98 55.3555 282.285 59.0273L281.055 51.1172C284.844 47.2109 288.574 43.7734 292.246 40.8047C295.957 37.7969 299.453 35.2773 302.734 33.2461C306.055 31.1758 309.062 29.6133 311.758 28.5586C314.492 27.5039 316.777 26.9766 318.613 26.9766C320.84 26.9766 322.461 27.6406 323.477 28.9688C324.531 30.2578 325.059 31.918 325.059 33.9492C325.059 35.2773 324.902 36.7227 324.59 38.2852C324.277 39.8086 323.867 41.4102 323.359 43.0898C322.891 44.7305 322.324 46.4102 321.66 48.1289C321.035 49.8086 320.371 51.4492 319.668 53.0508L305.488 86.1562C304.668 88.1484 303.887 90.1602 303.145 92.1914C302.402 94.1836 301.758 96.0781 301.211 97.875C300.664 99.6719 300.215 101.312 299.863 102.797C299.551 104.281 299.395 105.473 299.395 106.371C299.395 108.09 300.234 108.949 301.914 108.949C302.539 108.949 303.438 108.832 304.609 108.598C305.82 108.324 307.285 107.738 309.004 106.84C310.762 105.941 312.754 104.613 314.98 102.855C317.207 101.059 319.648 98.6172 322.305 95.5312C324.961 92.4453 327.812 88.6367 330.859 84.1055C333.945 79.5352 337.207 74.0078 340.645 67.5234L353.477 37.4648H361.035L336.777 94.5352C335.957 96.4492 335.078 98.5195 334.141 100.746C333.203 102.934 332.188 105.18 331.094 107.484C330 109.789 328.809 112.113 327.52 114.457C326.27 116.84 324.902 119.164 323.418 121.43H331.27L328.867 126.586H319.727C318.008 128.773 316.152 130.805 314.16 132.68C312.168 134.594 310.039 136.234 307.773 137.602C305.508 139.008 303.086 140.102 300.508 140.883C297.93 141.664 295.195 142.055 292.305 142.055C290.586 142.055 289.102 141.859 287.852 141.469C286.641 141.078 285.645 140.531 284.863 139.828C284.082 139.125 283.516 138.285 283.164 137.309C282.812 136.371 282.637 135.355 282.637 134.262C282.637 133.832 282.715 133.207 282.871 132.387C283.066 131.566 283.438 130.668 283.984 129.691C284.57 128.754 285.371 127.797 286.387 126.82C287.402 125.844 288.73 124.945 290.371 124.125C292.051 123.344 294.102 122.699 296.523 122.191C298.984 121.684 301.895 121.43 305.254 121.43H315.742C317.734 118.148 319.844 114.32 322.07 109.945C324.297 105.531 326.641 100.395 329.102 94.5352L332.793 85.8633C329.316 91.0195 326.016 95.2969 322.891 98.6953C319.805 102.055 316.895 104.73 314.16 106.723C311.465 108.715 308.945 110.102 306.602 110.883C304.297 111.664 302.207 112.055 300.332 112.055C297.793 112.055 295.898 111.293 294.648 109.77C293.438 108.246 292.832 106.352 292.832 104.086C292.832 102.875 292.969 101.547 293.242 100.102C293.516 98.6172 293.887 97.0938 294.355 95.5312C294.824 93.9297 295.352 92.3477 295.938 90.7852C296.523 89.1836 297.129 87.6406 297.754 86.1562L311.875 53.0508ZM292.246 139.652C293.809 139.652 295.371 139.457 296.934 139.066C298.496 138.715 300.098 138.051 301.738 137.074C303.418 136.137 305.117 134.809 306.836 133.09C308.594 131.41 310.43 129.242 312.344 126.586H302.852C300.977 126.586 298.984 126.684 296.875 126.879C294.805 127.113 292.891 127.523 291.133 128.109C289.414 128.695 287.988 129.516 286.855 130.57C285.723 131.664 285.156 133.051 285.156 134.73C285.156 136.254 285.703 137.445 286.797 138.305C287.891 139.203 289.707 139.652 292.246 139.652Z" fill="#110909"/>
<path d="M322.875 53.0508C323.734 50.9805 324.613 48.9102 325.512 46.8398C326.41 44.7305 327.211 42.7383 327.914 40.8633C328.617 38.9492 329.184 37.1914 329.613 35.5898C330.082 33.9883 330.316 32.6406 330.316 31.5469C330.316 30.8438 330.16 30.2773 329.848 29.8477C329.574 29.3789 329.145 29.1445 328.559 29.1445C325.785 29.5742 322.602 30.9023 319.008 33.1289C317.484 34.0664 315.785 35.2578 313.91 36.7031C312.074 38.1484 310.062 39.9258 307.875 42.0352C305.727 44.1055 303.422 46.5469 300.961 49.3594C298.539 52.1328 295.98 55.3555 293.285 59.0273L292.055 51.1172C295.844 47.2109 299.574 43.7734 303.246 40.8047C306.957 37.7969 310.453 35.2773 313.734 33.2461C317.055 31.1758 320.062 29.6133 322.758 28.5586C325.492 27.5039 327.777 26.9766 329.613 26.9766C331.84 26.9766 333.461 27.6406 334.477 28.9688C335.531 30.2578 336.059 31.918 336.059 33.9492C336.059 35.2773 335.902 36.7227 335.59 38.2852C335.277 39.8086 334.867 41.4102 334.359 43.0898C333.891 44.7305 333.324 46.4102 332.66 48.1289C332.035 49.8086 331.371 51.4492 330.668 53.0508L316.488 86.1562C315.668 88.1484 314.887 90.1602 314.145 92.1914C313.402 94.1836 312.758 96.0781 312.211 97.875C311.664 99.6719 311.215 101.312 310.863 102.797C310.551 104.281 310.395 105.473 310.395 106.371C310.395 108.09 311.234 108.949 312.914 108.949C313.539 108.949 314.438 108.832 315.609 108.598C316.82 108.324 318.285 107.738 320.004 106.84C321.762 105.941 323.754 104.613 325.98 102.855C328.207 101.059 330.648 98.6172 333.305 95.5312C335.961 92.4453 338.812 88.6367 341.859 84.1055C344.945 79.5352 348.207 74.0078 351.645 67.5234L364.477 37.4648H372.035L347.777 94.5352C346.957 96.4492 346.078 98.5195 345.141 100.746C344.203 102.934 343.188 105.18 342.094 107.484C341 109.789 339.809 112.113 338.52 114.457C337.27 116.84 335.902 119.164 334.418 121.43H342.27L339.867 126.586H330.727C329.008 128.773 327.152 130.805 325.16 132.68C323.168 134.594 321.039 136.234 318.773 137.602C316.508 139.008 314.086 140.102 311.508 140.883C308.93 141.664 306.195 142.055 303.305 142.055C301.586 142.055 300.102 141.859 298.852 141.469C297.641 141.078 296.645 140.531 295.863 139.828C295.082 139.125 294.516 138.285 294.164 137.309C293.812 136.371 293.637 135.355 293.637 134.262C293.637 133.832 293.715 133.207 293.871 132.387C294.066 131.566 294.438 130.668 294.984 129.691C295.57 128.754 296.371 127.797 297.387 126.82C298.402 125.844 299.73 124.945 301.371 124.125C303.051 123.344 305.102 122.699 307.523 122.191C309.984 121.684 312.895 121.43 316.254 121.43H326.742C328.734 118.148 330.844 114.32 333.07 109.945C335.297 105.531 337.641 100.395 340.102 94.5352L343.793 85.8633C340.316 91.0195 337.016 95.2969 333.891 98.6953C330.805 102.055 327.895 104.73 325.16 106.723C322.465 108.715 319.945 110.102 317.602 110.883C315.297 111.664 313.207 112.055 311.332 112.055C308.793 112.055 306.898 111.293 305.648 109.77C304.438 108.246 303.832 106.352 303.832 104.086C303.832 102.875 303.969 101.547 304.242 100.102C304.516 98.6172 304.887 97.0938 305.355 95.5312C305.824 93.9297 306.352 92.3477 306.938 90.7852C307.523 89.1836 308.129 87.6406 308.754 86.1562L322.875 53.0508ZM303.246 139.652C304.809 139.652 306.371 139.457 307.934 139.066C309.496 138.715 311.098 138.051 312.738 137.074C314.418 136.137 316.117 134.809 317.836 133.09C319.594 131.41 321.43 129.242 323.344 126.586H313.852C311.977 126.586 309.984 126.684 307.875 126.879C305.805 127.113 303.891 127.523 302.133 128.109C300.414 128.695 298.988 129.516 297.855 130.57C296.723 131.664 296.156 133.051 296.156 134.73C296.156 136.254 296.703 137.445 297.797 138.305C298.891 139.203 300.707 139.652 303.246 139.652Z" fill="#110909"/>
<path d="M468.508 88.7109H474.426L471.906 94.1016H466.281L455.383 120H447.59L458.43 94.1016H432.941C432.785 94.4141 432.629 94.707 432.473 94.9805C432.355 95.2148 432.219 95.4688 432.062 95.7422C429.055 101.172 426.105 105.547 423.215 108.867C420.324 112.148 417.551 114.707 414.895 116.543C412.238 118.34 409.738 119.531 407.395 120.117C405.051 120.742 402.902 121.055 400.949 121.055C399.27 121.055 397.727 120.781 396.32 120.234C394.875 119.727 393.625 119.004 392.57 118.066C391.516 117.09 390.695 115.898 390.109 114.492C389.484 113.086 389.172 111.504 389.172 109.746C389.172 106.426 390.051 103.457 391.809 100.84C393.527 98.2227 395.93 96.0156 399.016 94.2188C402.102 92.4219 405.773 91.0547 410.031 90.1172C414.328 89.1797 419.016 88.7109 424.094 88.7109H427.902C432.121 81.5234 435.969 75.2344 439.445 69.8438C442.922 64.4531 446.125 59.8047 449.055 55.8984C451.984 51.9922 454.66 48.75 457.082 46.1719C459.543 43.5938 461.848 41.5625 463.996 40.0781C466.145 38.5547 468.176 37.5 470.09 36.9141C472.043 36.2891 473.957 35.9766 475.832 35.9766C478.293 35.9766 480.246 36.7188 481.691 38.2031C483.137 39.6484 483.859 41.9727 483.859 45.1758C483.859 47.4414 483.469 50.1172 482.688 53.2031C481.906 56.2891 480.656 59.8828 478.938 63.9844L468.508 88.7109ZM475.188 38.1445C473.898 38.1445 472.648 38.3203 471.438 38.6719C470.227 38.9844 468.898 39.707 467.453 40.8398C466.008 41.9727 464.367 43.6523 462.531 45.8789C460.734 48.0664 458.586 51.0352 456.086 54.7852C453.625 58.5352 450.754 63.1836 447.473 68.7305C444.191 74.2383 440.363 80.8984 435.988 88.7109H460.656L471.027 63.9844C473.293 58.5156 475.09 53.9844 476.418 50.3906C477.785 46.7578 478.469 43.9062 478.469 41.8359C478.469 40.5859 478.215 39.668 477.707 39.082C477.199 38.457 476.359 38.1445 475.188 38.1445ZM401.418 118.125C403.996 118.125 406.301 117.5 408.332 116.25C410.402 114.961 412.297 113.281 414.016 111.211C415.773 109.141 417.414 106.797 418.938 104.18C420.5 101.562 422.043 98.9062 423.566 96.2109L424.797 94.1016H421.34C415.754 94.1016 411.086 94.5508 407.336 95.4492C403.586 96.3086 400.578 97.4609 398.312 98.9062C396.047 100.352 394.445 102.012 393.508 103.887C392.531 105.723 392.043 107.598 392.043 109.512C392.043 110.605 392.219 111.68 392.57 112.734C392.883 113.75 393.41 114.668 394.152 115.488C394.895 116.27 395.871 116.914 397.082 117.422C398.254 117.891 399.699 118.125 401.418 118.125Z" fill="#110909"/>
<path d="M453.508 89.7109H459.426L456.906 95.1016H451.281L440.383 121H432.59L443.43 95.1016H417.941C417.785 95.4141 417.629 95.707 417.473 95.9805C417.355 96.2148 417.219 96.4688 417.062 96.7422C414.055 102.172 411.105 106.547 408.215 109.867C405.324 113.148 402.551 115.707 399.895 117.543C397.238 119.34 394.738 120.531 392.395 121.117C390.051 121.742 387.902 122.055 385.949 122.055C384.27 122.055 382.727 121.781 381.32 121.234C379.875 120.727 378.625 120.004 377.57 119.066C376.516 118.09 375.695 116.898 375.109 115.492C374.484 114.086 374.172 112.504 374.172 110.746C374.172 107.426 375.051 104.457 376.809 101.84C378.527 99.2227 380.93 97.0156 384.016 95.2188C387.102 93.4219 390.773 92.0547 395.031 91.1172C399.328 90.1797 404.016 89.7109 409.094 89.7109H412.902C417.121 82.5234 420.969 76.2344 424.445 70.8438C427.922 65.4531 431.125 60.8047 434.055 56.8984C436.984 52.9922 439.66 49.75 442.082 47.1719C444.543 44.5938 446.848 42.5625 448.996 41.0781C451.145 39.5547 453.176 38.5 455.09 37.9141C457.043 37.2891 458.957 36.9766 460.832 36.9766C463.293 36.9766 465.246 37.7188 466.691 39.2031C468.137 40.6484 468.859 42.9727 468.859 46.1758C468.859 48.4414 468.469 51.1172 467.688 54.2031C466.906 57.2891 465.656 60.8828 463.938 64.9844L453.508 89.7109ZM460.188 39.1445C458.898 39.1445 457.648 39.3203 456.438 39.6719C455.227 39.9844 453.898 40.707 452.453 41.8398C451.008 42.9727 449.367 44.6523 447.531 46.8789C445.734 49.0664 443.586 52.0352 441.086 55.7852C438.625 59.5352 435.754 64.1836 432.473 69.7305C429.191 75.2383 425.363 81.8984 420.988 89.7109H445.656L456.027 64.9844C458.293 59.5156 460.09 54.9844 461.418 51.3906C462.785 47.7578 463.469 44.9062 463.469 42.8359C463.469 41.5859 463.215 40.668 462.707 40.082C462.199 39.457 461.359 39.1445 460.188 39.1445ZM386.418 119.125C388.996 119.125 391.301 118.5 393.332 117.25C395.402 115.961 397.297 114.281 399.016 112.211C400.773 110.141 402.414 107.797 403.938 105.18C405.5 102.562 407.043 99.9062 408.566 97.2109L409.797 95.1016H406.34C400.754 95.1016 396.086 95.5508 392.336 96.4492C388.586 97.3086 385.578 98.4609 383.312 99.9062C381.047 101.352 379.445 103.012 378.508 104.887C377.531 106.723 377.043 108.598 377.043 110.512C377.043 111.605 377.219 112.68 377.57 113.734C377.883 114.75 378.41 115.668 379.152 116.488C379.895 117.27 380.871 117.914 382.082 118.422C383.254 118.891 384.699 119.125 386.418 119.125Z" fill="#110909"/>
<path d="M573.105 62.1016C573.965 60.0312 574.844 57.9609 575.742 55.8906C576.68 53.7812 577.52 51.7695 578.262 49.8555C579.004 47.9414 579.609 46.2617 580.078 44.8164C580.547 43.332 580.781 42.0625 580.781 41.0078C580.781 40.2266 580.586 39.6211 580.195 39.1914C579.844 38.7617 579.355 38.5469 578.73 38.5469C575.605 38.5469 572.031 39.9727 568.008 42.8242C566.289 44.0352 564.395 45.6172 562.324 47.5703C560.254 49.4844 558.047 51.8086 555.703 54.543C553.398 57.2383 550.957 60.4219 548.379 64.0938C545.84 67.7266 543.203 71.9453 540.469 76.75L522.891 118H515.566L542.871 53.6641C543.73 51.6328 544.57 49.582 545.391 47.5117C546.25 45.4414 546.992 43.4688 547.617 41.5938C548.281 39.7188 548.809 38 549.199 36.4375C549.629 34.8359 549.844 33.4883 549.844 32.3945C549.844 30.5977 549.219 29.6992 547.969 29.6992C545.312 29.9727 542.227 31.1836 538.711 33.332C537.227 34.2305 535.566 35.4023 533.73 36.8477C531.895 38.2539 529.902 39.9922 527.754 42.0625C525.605 44.0938 523.32 46.5156 520.898 49.3281C518.477 52.1016 515.918 55.3047 513.223 58.9375L512.051 51.7891C515.84 47.8828 519.551 44.4258 523.184 41.418C526.816 38.4102 530.234 35.8906 533.438 33.8594C536.68 31.8281 539.629 30.2852 542.285 29.2305C544.941 28.1758 547.188 27.6484 549.023 27.6484C551.328 27.6484 552.949 28.3516 553.887 29.7578C554.863 31.125 555.352 32.9023 555.352 35.0898C555.352 36.418 555.215 37.8438 554.941 39.3672C554.668 40.8906 554.297 42.4531 553.828 44.0547C553.359 45.6562 552.812 47.2773 552.188 48.918C551.602 50.5586 550.977 52.1406 550.312 53.6641L545.684 64.4453C549.551 58.8203 553.125 54.1914 556.406 50.5586C559.688 46.8867 562.715 43.9961 565.488 41.8867C568.262 39.7383 570.801 38.2539 573.105 37.4336C575.41 36.5742 577.539 36.1445 579.492 36.1445C581.602 36.1445 583.184 36.8281 584.238 38.1953C585.293 39.5234 585.82 41.3008 585.82 43.5273C585.82 44.8164 585.684 46.2227 585.41 47.7461C585.137 49.2695 584.766 50.832 584.297 52.4336C583.828 54.0352 583.281 55.6758 582.656 57.3555C582.07 58.9961 581.465 60.5781 580.84 62.1016L564.375 100.949C561.836 106.926 559.824 111.848 558.34 115.715C556.855 119.582 556.113 122.453 556.113 124.328C556.113 125.109 556.27 125.734 556.582 126.203C556.934 126.711 557.48 126.965 558.223 126.965C558.496 126.965 558.887 126.867 559.395 126.672C559.902 126.516 560.508 126.203 561.211 125.734C561.953 125.266 562.812 124.602 563.789 123.742C564.766 122.883 565.84 121.77 567.012 120.402L568.828 121.984C567.344 123.703 565.996 125.07 564.785 126.086C563.613 127.102 562.539 127.863 561.562 128.371C560.586 128.918 559.707 129.27 558.926 129.426C558.145 129.582 557.422 129.66 556.758 129.66C555.469 129.66 554.375 129.445 553.477 129.016C552.617 128.625 551.914 128.078 551.367 127.375C550.859 126.711 550.488 125.93 550.254 125.031C550.02 124.172 549.902 123.273 549.902 122.336C549.902 120.812 550.098 119.191 550.488 117.473C550.918 115.715 551.445 113.918 552.07 112.082C552.734 110.207 553.457 108.332 554.238 106.457C555.059 104.543 555.859 102.707 556.641 100.949L573.105 62.1016Z" fill="#110909"/>
<path d="M563.105 65.1016C563.965 63.0312 564.844 60.9609 565.742 58.8906C566.68 56.7812 567.52 54.7695 568.262 52.8555C569.004 50.9414 569.609 49.2617 570.078 47.8164C570.547 46.332 570.781 45.0625 570.781 44.0078C570.781 43.2266 570.586 42.6211 570.195 42.1914C569.844 41.7617 569.355 41.5469 568.73 41.5469C565.605 41.5469 562.031 42.9727 558.008 45.8242C556.289 47.0352 554.395 48.6172 552.324 50.5703C550.254 52.4844 548.047 54.8086 545.703 57.543C543.398 60.2383 540.957 63.4219 538.379 67.0938C535.84 70.7266 533.203 74.9453 530.469 79.75L512.891 121H505.566L532.871 56.6641C533.73 54.6328 534.57 52.582 535.391 50.5117C536.25 48.4414 536.992 46.4688 537.617 44.5938C538.281 42.7188 538.809 41 539.199 39.4375C539.629 37.8359 539.844 36.4883 539.844 35.3945C539.844 33.5977 539.219 32.6992 537.969 32.6992C535.312 32.9727 532.227 34.1836 528.711 36.332C527.227 37.2305 525.566 38.4023 523.73 39.8477C521.895 41.2539 519.902 42.9922 517.754 45.0625C515.605 47.0938 513.32 49.5156 510.898 52.3281C508.477 55.1016 505.918 58.3047 503.223 61.9375L502.051 54.7891C505.84 50.8828 509.551 47.4258 513.184 44.418C516.816 41.4102 520.234 38.8906 523.438 36.8594C526.68 34.8281 529.629 33.2852 532.285 32.2305C534.941 31.1758 537.188 30.6484 539.023 30.6484C541.328 30.6484 542.949 31.3516 543.887 32.7578C544.863 34.125 545.352 35.9023 545.352 38.0898C545.352 39.418 545.215 40.8438 544.941 42.3672C544.668 43.8906 544.297 45.4531 543.828 47.0547C543.359 48.6562 542.812 50.2773 542.188 51.918C541.602 53.5586 540.977 55.1406 540.312 56.6641L535.684 67.4453C539.551 61.8203 543.125 57.1914 546.406 53.5586C549.688 49.8867 552.715 46.9961 555.488 44.8867C558.262 42.7383 560.801 41.2539 563.105 40.4336C565.41 39.5742 567.539 39.1445 569.492 39.1445C571.602 39.1445 573.184 39.8281 574.238 41.1953C575.293 42.5234 575.82 44.3008 575.82 46.5273C575.82 47.8164 575.684 49.2227 575.41 50.7461C575.137 52.2695 574.766 53.832 574.297 55.4336C573.828 57.0352 573.281 58.6758 572.656 60.3555C572.07 61.9961 571.465 63.5781 570.84 65.1016L554.375 103.949C551.836 109.926 549.824 114.848 548.34 118.715C546.855 122.582 546.113 125.453 546.113 127.328C546.113 128.109 546.27 128.734 546.582 129.203C546.934 129.711 547.48 129.965 548.223 129.965C548.496 129.965 548.887 129.867 549.395 129.672C549.902 129.516 550.508 129.203 551.211 128.734C551.953 128.266 552.812 127.602 553.789 126.742C554.766 125.883 555.84 124.77 557.012 123.402L558.828 124.984C557.344 126.703 555.996 128.07 554.785 129.086C553.613 130.102 552.539 130.863 551.562 131.371C550.586 131.918 549.707 132.27 548.926 132.426C548.145 132.582 547.422 132.66 546.758 132.66C545.469 132.66 544.375 132.445 543.477 132.016C542.617 131.625 541.914 131.078 541.367 130.375C540.859 129.711 540.488 128.93 540.254 128.031C540.02 127.172 539.902 126.273 539.902 125.336C539.902 123.812 540.098 122.191 540.488 120.473C540.918 118.715 541.445 116.918 542.07 115.082C542.734 113.207 543.457 111.332 544.238 109.457C545.059 107.543 545.859 105.707 546.641 103.949L563.105 65.1016Z" fill="#110909"/>
<defs>
<linearGradient id="paint0_linear_11_17" x1="122.5" y1="3" x2="122.5" y2="118" gradientUnits="userSpaceOnUse">
<stop offset="0.9999" stop-color="#403544"/>
<stop offset="1" stop-opacity="0"/>
</linearGradient>
<linearGradient id="paint1_linear_11_17" x1="128.5" y1="10" x2="128.5" y2="125" gradientUnits="userSpaceOnUse">
<stop offset="0.9999" stop-color="#403544"/>
<stop offset="1" stop-opacity="0"/>
</linearGradient>
</defs>
</svg>
