<svg width="321" height="95" viewBox="0 0 321 95" fill="none" xmlns="http://www.w3.org/2000/svg">
<g id="Name">
<rect width="321" height="95" fill="white"/>
<g id="3">
<path id="K" d="M18.3843 79C17.4883 79 16.6989 78.68 16.0163 78.04C15.3763 77.4 15.0563 76.6107 15.0563 75.672V32.344C15.0563 31.4053 15.3763 30.616 16.0163 29.976C16.6989 29.336 17.4883 29.016 18.3843 29.016C19.3229 29.016 20.1123 29.336 20.7523 29.976C21.3923 30.616 21.7123 31.4053 21.7123 32.344V51.544L42.8963 30.36C43.4083 29.848 43.8776 29.5067 44.3043 29.336C44.7309 29.1227 45.1789 29.016 45.6483 29.016C46.7149 29.016 47.4829 29.336 47.9523 29.976C48.4216 30.616 48.5923 31.384 48.4643 32.28C48.3363 33.1333 47.9309 33.9227 47.2483 34.648L30.9283 51.032L47.5683 73.688C48.0803 74.4133 48.2936 75.2027 48.2083 76.056C48.1229 76.8667 47.8243 77.5707 47.3123 78.168C46.8003 78.7227 46.1176 79 45.2643 79C44.0696 79 43.1523 78.5307 42.5123 77.592L26.3203 55.64L21.7123 60.248V75.672C21.7123 76.6107 21.3923 77.4 20.7523 78.04C20.1123 78.68 19.3229 79 18.3843 79Z" fill="black"/>
<path id="A" d="M64.416 66C63.2213 66 62.304 65.488 61.664 64.464C61.024 63.44 60.96 62.352 61.472 61.2L79.456 18.256C80.096 16.7627 81.1413 16.016 82.592 16.016C84.128 16.016 85.1733 16.7627 85.728 18.256L103.776 61.328C104.245 62.5227 104.16 63.6107 103.52 64.592C102.923 65.5307 102.005 66 100.768 66C100.128 66 99.5093 65.8293 98.912 65.488C98.3573 65.104 97.952 64.592 97.696 63.952L81.824 24.528H83.616L67.488 63.952C67.1893 64.6347 66.7413 65.1467 66.144 65.488C65.5893 65.8293 65.0133 66 64.416 66ZM67.808 54.992L70.368 49.488H95.456L98.016 54.992H67.808Z" fill="black"/>
<path id="L" d="M121.633 78C120.694 78 119.905 77.68 119.265 77.04C118.667 76.4 118.369 75.6107 118.369 74.672V31.344C118.369 30.4053 118.689 29.616 119.329 28.976C119.969 28.336 120.737 28.016 121.633 28.016C122.571 28.016 123.361 28.336 124.001 28.976C124.641 29.616 124.961 30.4053 124.961 31.344V71.344H148.129C149.067 71.344 149.857 71.664 150.497 72.304C151.137 72.944 151.457 73.7333 151.457 74.672C151.457 75.6107 151.137 76.4 150.497 77.04C149.857 77.68 149.067 78 148.129 78H121.633Z" fill="black"/>
</g>
<g id="6">
<path id="Y" d="M182.439 67C181.543 67 180.775 66.68 180.135 66.04C179.495 65.4 179.175 64.6107 179.175 63.672V48.76L162.087 22.2C161.532 21.304 161.319 20.472 161.447 19.704C161.575 18.8933 161.937 18.2533 162.535 17.784C163.175 17.272 163.9 17.016 164.711 17.016C165.436 17.016 166.012 17.1867 166.439 17.528C166.865 17.8267 167.271 18.2747 167.655 18.872L183.911 44.664H181.351L197.863 18.616C198.204 18.104 198.609 17.72 199.079 17.464C199.548 17.1653 200.124 17.016 200.807 17.016C201.575 17.016 202.215 17.2933 202.727 17.848C203.239 18.36 203.537 19.0213 203.623 19.832C203.708 20.6 203.495 21.3893 202.983 22.2L185.767 48.76V63.672C185.767 64.6107 185.447 65.4 184.807 66.04C184.167 66.68 183.377 67 182.439 67Z" fill="black"/>
<path id="A_2" d="M217.416 79C216.221 79 215.304 78.488 214.664 77.464C214.024 76.44 213.96 75.352 214.472 74.2L232.456 31.256C233.096 29.7627 234.141 29.016 235.592 29.016C237.128 29.016 238.173 29.7627 238.728 31.256L256.776 74.328C257.245 75.5227 257.16 76.6107 256.52 77.592C255.923 78.5307 255.005 79 253.768 79C253.128 79 252.509 78.8293 251.912 78.488C251.357 78.104 250.952 77.592 250.696 76.952L234.824 37.528H236.616L220.488 76.952C220.189 77.6347 219.741 78.1467 219.144 78.488C218.589 78.8293 218.013 79 217.416 79ZM220.808 67.992L223.368 62.488H248.456L251.016 67.992H220.808Z" fill="black"/>
<path id="N" d="M275.602 67C274.663 67 273.874 66.68 273.234 66.04C272.636 65.4 272.338 64.6107 272.338 63.672V20.344C272.338 19.3627 272.636 18.5733 273.234 17.976C273.874 17.336 274.663 17.016 275.602 17.016C276.626 17.016 277.479 17.4213 278.162 18.232L306.066 55.352V20.344C306.066 19.3627 306.386 18.5733 307.026 17.976C307.666 17.336 308.455 17.016 309.394 17.016C310.375 17.016 311.164 17.336 311.762 17.976C312.359 18.5733 312.658 19.3627 312.658 20.344V63.672C312.658 64.6107 312.359 65.4 311.762 66.04C311.164 66.68 310.375 67 309.394 67C308.967 67 308.498 66.9147 307.986 66.744C307.516 66.5307 307.132 66.232 306.834 65.848L278.93 28.728V63.672C278.93 64.6107 278.61 65.4 277.97 66.04C277.372 66.68 276.583 67 275.602 67Z" fill="black"/>
</g>
</g>
</svg>
